<svg width="228" height="30" viewBox="0 0 228 30" fill="none" xmlns="http://www.w3.org/2000/svg">
<path d="M176.482 23.0654C174.958 23.0654 173.56 22.8045 172.287 22.2828C171.014 21.7402 169.939 20.968 169.062 19.9663L172.224 16.8045C172.621 17.3889 173.195 17.8689 173.946 18.2445C174.718 18.5993 175.532 18.7767 176.388 18.7767C177.16 18.7767 177.828 18.641 178.391 18.3697C178.955 18.0984 179.393 17.7123 179.706 17.2115C180.04 16.7106 180.207 16.1158 180.207 15.4271C180.207 14.7384 180.04 14.1541 179.706 13.6741C179.393 13.1732 178.923 12.7871 178.297 12.5158C177.692 12.2445 176.962 12.1089 176.106 12.1089C175.709 12.1089 175.292 12.1402 174.854 12.2028C174.436 12.2445 174.082 12.3176 173.789 12.4219L175.949 9.69843C176.534 9.53147 177.087 9.39582 177.609 9.29147C178.151 9.16626 178.652 9.10365 179.111 9.10365C180.238 9.10365 181.25 9.37495 182.148 9.91756C183.045 10.4393 183.755 11.1906 184.276 12.1715C184.819 13.1315 185.09 14.2793 185.09 15.615C185.09 17.0758 184.725 18.3697 183.995 19.4967C183.285 20.6236 182.283 21.5002 180.989 22.1263C179.716 22.7523 178.214 23.0654 176.482 23.0654ZM173.789 12.4219V9.69843L179.174 3.3749L184.683 3.3436L179.08 9.72973L173.789 12.4219ZM170.44 4.78365V0.620117H184.683V3.3436L180.833 4.78365H170.44ZM195.032 23.0654C193.488 23.0654 192.089 22.721 190.837 22.0323C189.606 21.3436 188.625 20.4254 187.895 19.2776C187.185 18.1089 186.83 16.8045 186.83 15.3645C186.83 13.4863 187.488 11.5871 188.803 9.66713L195.032 0.620117H200.573L193.655 10.2619L191.808 10.4184C192.1 9.91756 192.403 9.48974 192.716 9.13495C193.049 8.7593 193.467 8.47756 193.968 8.28974C194.469 8.08104 195.105 7.97669 195.877 7.97669C197.255 7.97669 198.486 8.30017 199.571 8.94713C200.677 9.57321 201.564 10.4393 202.232 11.5454C202.9 12.6306 203.234 13.8828 203.234 15.3019C203.234 16.7419 202.869 18.0567 202.138 19.2463C201.408 20.415 200.427 21.3436 199.196 22.0323C197.964 22.721 196.576 23.0654 195.032 23.0654ZM195.032 18.7767C195.679 18.7767 196.263 18.6202 196.785 18.3071C197.307 17.9941 197.714 17.5663 198.006 17.0236C198.298 16.481 198.444 15.8758 198.444 15.208C198.444 14.5193 198.298 13.9141 198.006 13.3923C197.714 12.8497 197.307 12.4323 196.785 12.1402C196.263 11.8271 195.679 11.6706 195.032 11.6706C194.364 11.6706 193.769 11.8271 193.248 12.1402C192.747 12.4323 192.35 12.8497 192.058 13.3923C191.766 13.9141 191.62 14.5193 191.62 15.208C191.62 15.8758 191.766 16.481 192.058 17.0236C192.35 17.5663 192.747 17.9941 193.248 18.3071C193.769 18.6202 194.364 18.7767 195.032 18.7767Z" fill="#140D91"/>
<mask id="mask0_3017_32599" style="mask-type:luminance" maskUnits="userSpaceOnUse" x="0" y="0" width="165" height="30">
<path d="M164.348 0H0V30H164.348V0Z" fill="white"/>
</mask>
<g mask="url(#mask0_3017_32599)">
<path d="M11.0504 22.8522C9.46431 22.8522 7.99301 22.5705 6.63654 22.007C5.30088 21.4226 4.13219 20.6192 3.13045 19.5965C2.12871 18.5531 1.35653 17.3531 0.813913 15.9965C0.271304 14.6192 0 13.1479 0 11.5826C0 10.0174 0.271304 8.55655 0.813913 7.20003C1.35653 5.82263 2.12871 4.62264 3.13045 3.6C4.13219 2.57739 5.30088 1.77391 6.63654 1.18957C7.99301 0.605218 9.46431 0.313043 11.0504 0.313043C12.8243 0.313043 14.3582 0.605218 15.6521 1.18957C16.9461 1.77391 18.0939 2.56696 19.0956 3.5687L16.6539 6.01046C16.0069 5.3009 15.2139 4.74785 14.2747 4.35131C13.3565 3.95478 12.2817 3.75652 11.0504 3.75652C9.96518 3.75652 8.97387 3.94435 8.07648 4.32C7.17909 4.69568 6.39654 5.23829 5.72871 5.94785C5.08175 6.63655 4.58088 7.4609 4.2261 8.4209C3.87132 9.3809 3.69393 10.4348 3.69393 11.5826C3.69393 12.7305 3.87132 13.7844 4.2261 14.7444C4.58088 15.7044 5.08175 16.5392 5.72871 17.2487C6.39654 17.9374 7.17909 18.4696 8.07648 18.8452C8.97387 19.2209 9.96518 19.4087 11.0504 19.4087C12.386 19.4087 13.513 19.2105 14.4313 18.8139C15.3704 18.3965 16.1634 17.8331 16.8104 17.1235L19.2521 19.5652C18.2504 20.5879 17.0713 21.3913 15.7147 21.9757C14.3582 22.56 12.8034 22.8522 11.0504 22.8522ZM28.4234 22.8522C26.9625 22.8522 25.6373 22.5079 24.4477 21.8192C23.2582 21.1096 22.3086 20.16 21.599 18.9705C20.9104 17.7809 20.566 16.4557 20.566 14.9948C20.566 13.5339 20.9104 12.2192 21.599 11.0505C22.3086 9.88177 23.2582 8.95307 24.4477 8.26437C25.6373 7.55481 26.9625 7.20003 28.4234 7.20003C29.9051 7.20003 31.2408 7.54437 32.4304 8.23307C33.6199 8.92177 34.5591 9.8609 35.2477 11.0505C35.9573 12.2192 36.3121 13.5339 36.3121 14.9948C36.3121 16.4557 35.9573 17.7809 35.2477 18.9705C34.5591 20.16 33.6199 21.1096 32.4304 21.8192C31.2408 22.5079 29.9051 22.8522 28.4234 22.8522ZM28.4234 19.5339C29.2791 19.5339 30.0304 19.3461 30.6773 18.9705C31.3451 18.5739 31.8564 18.0313 32.2112 17.3426C32.5869 16.6539 32.7747 15.8713 32.7747 14.9948C32.7747 14.1183 32.5869 13.3461 32.2112 12.6783C31.8356 12.0105 31.3243 11.4887 30.6773 11.1131C30.0304 10.7165 29.2791 10.5183 28.4234 10.5183C27.5886 10.5183 26.8373 10.7165 26.1695 11.1131C25.5225 11.4887 25.0112 12.0105 24.6356 12.6783C24.2808 13.3461 24.1034 14.1183 24.1034 14.9948C24.1034 15.8713 24.2808 16.6539 24.6356 17.3426C25.0112 18.0313 25.5225 18.5739 26.1695 18.9705C26.8373 19.3461 27.5886 19.5339 28.4234 19.5339ZM39.1757 22.5392V7.51307H42.6191V22.5392H39.1757ZM49.1617 22.5392V13.5861C49.1617 12.5844 48.8487 11.8122 48.2226 11.2696C47.5965 10.7061 46.8244 10.4244 45.9061 10.4244C45.28 10.4244 44.7165 10.5496 44.2157 10.8C43.7357 11.0505 43.3496 11.4157 43.0574 11.8957C42.7652 12.3548 42.6191 12.9183 42.6191 13.5861L41.2731 12.8348C41.2731 11.687 41.5235 10.6957 42.0244 9.8609C42.5252 9.02611 43.2035 8.37916 44.0591 7.92003C44.9148 7.44003 45.8748 7.20003 46.9391 7.20003C48.0035 7.20003 48.9635 7.42959 49.8191 7.88872C50.6748 8.34785 51.353 8.99481 51.8539 9.82959C52.3548 10.6644 52.6052 11.6661 52.6052 12.8348V22.5392H49.1617ZM59.1478 22.5392V13.5861C59.1478 12.5844 58.8348 11.8122 58.2087 11.2696C57.5826 10.7061 56.8104 10.4244 55.8922 10.4244C55.287 10.4244 54.7339 10.5496 54.2331 10.8C53.7322 11.0505 53.3357 11.4157 53.0435 11.8957C52.7513 12.3548 52.6052 12.9183 52.6052 13.5861L50.6644 12.8348C50.7687 11.687 51.1026 10.6957 51.6661 9.8609C52.2296 9.02611 52.9496 8.37916 53.8261 7.92003C54.7235 7.44003 55.7044 7.20003 56.7687 7.20003C57.8539 7.20003 58.8348 7.42959 59.7113 7.88872C60.5878 8.34785 61.287 8.99481 61.8087 9.82959C62.3304 10.6644 62.5913 11.6661 62.5913 12.8348V22.5392H59.1478ZM74.1842 22.8522C73.0364 22.8522 72.0138 22.6122 71.1164 22.1322C70.219 21.6313 69.5094 20.9531 68.9877 20.0974C68.4868 19.2418 68.2364 18.2713 68.2364 17.1861V12.8661C68.2364 11.7809 68.4973 10.8105 69.019 9.95481C69.5407 9.09916 70.2503 8.43133 71.1477 7.95133C72.0451 7.45046 73.0573 7.20003 74.1842 7.20003C75.5407 7.20003 76.7616 7.55481 77.8468 8.26437C78.9529 8.95307 79.819 9.8922 80.4451 11.0818C81.092 12.2505 81.4155 13.5757 81.4155 15.0574C81.4155 16.5183 81.092 17.8435 80.4451 19.0331C79.819 20.2018 78.9529 21.1305 77.8468 21.8192C76.7616 22.5079 75.5407 22.8522 74.1842 22.8522ZM66.139 28.8V7.51307H69.5825V11.5513L68.9877 15.2139L69.5825 18.8452V28.8H66.139ZM73.6207 19.5965C74.4555 19.5965 75.186 19.4087 75.8121 19.0331C76.459 18.6365 76.9599 18.0939 77.3147 17.4052C77.6903 16.7165 77.8781 15.9235 77.8781 15.0261C77.8781 14.1287 77.6903 13.3357 77.3147 12.647C76.9599 11.9583 76.459 11.4261 75.8121 11.0505C75.186 10.6539 74.4555 10.4557 73.6207 10.4557C72.786 10.4557 72.0451 10.6539 71.3981 11.0505C70.7512 11.4261 70.2503 11.9583 69.8955 12.647C69.5407 13.3357 69.3634 14.1287 69.3634 15.0261C69.3634 15.9235 69.5407 16.7165 69.8955 17.4052C70.2503 18.0939 70.7512 18.6365 71.3981 19.0331C72.0451 19.4087 72.786 19.5965 73.6207 19.5965ZM84.298 22.5392V0H87.7415V22.5392H84.298ZM91.6051 22.5392V7.51307H95.0486V22.5392H91.6051ZM93.3268 4.75829C92.7425 4.75829 92.2521 4.56003 91.8555 4.16348C91.4799 3.76696 91.2921 3.27652 91.2921 2.69217C91.2921 2.10783 91.4799 1.61739 91.8555 1.22087C92.2521 0.824348 92.7425 0.626087 93.3268 0.626087C93.932 0.626087 94.4225 0.824348 94.7981 1.22087C95.1738 1.61739 95.3616 2.10783 95.3616 2.69217C95.3616 3.27652 95.1738 3.76696 94.7981 4.16348C94.4225 4.56003 93.932 4.75829 93.3268 4.75829ZM105.203 22.8522C103.846 22.8522 102.615 22.5079 101.509 21.8192C100.424 21.1305 99.5577 20.2018 98.9107 19.0331C98.2847 17.8435 97.9716 16.5183 97.9716 15.0574C97.9716 13.5757 98.2847 12.2505 98.9107 11.0818C99.5577 9.8922 100.424 8.95307 101.509 8.26437C102.615 7.55481 103.846 7.20003 105.203 7.20003C106.351 7.20003 107.363 7.45046 108.239 7.95133C109.137 8.43133 109.846 9.09916 110.368 9.95481C110.89 10.8105 111.151 11.7809 111.151 12.8661V17.1861C111.151 18.2713 110.89 19.2418 110.368 20.0974C109.867 20.9531 109.168 21.6313 108.271 22.1322C107.373 22.6122 106.351 22.8522 105.203 22.8522ZM105.766 19.5965C107.039 19.5965 108.062 19.1687 108.834 18.3131C109.627 17.4574 110.024 16.3618 110.024 15.0261C110.024 14.1287 109.846 13.3357 109.492 12.647C109.137 11.9583 108.636 11.4261 107.989 11.0505C107.363 10.6539 106.622 10.4557 105.766 10.4557C104.932 10.4557 104.191 10.6539 103.544 11.0505C102.918 11.4261 102.417 11.9583 102.041 12.647C101.686 13.3357 101.509 14.1287 101.509 15.0261C101.509 15.9235 101.686 16.7165 102.041 17.4052C102.417 18.0939 102.918 18.6365 103.544 19.0331C104.191 19.4087 104.932 19.5965 105.766 19.5965ZM109.805 22.5392V18.5009L110.399 14.8383L109.805 11.207V7.51307H113.248V22.5392H109.805ZM127.369 22.5392V13.8679C127.369 12.8661 127.045 12.0418 126.398 11.3948C125.772 10.7479 124.958 10.4244 123.957 10.4244C123.289 10.4244 122.694 10.5705 122.172 10.8626C121.651 11.1548 121.244 11.5618 120.951 12.0835C120.659 12.6052 120.513 13.2 120.513 13.8679L119.167 13.1165C119.167 11.9687 119.418 10.9565 119.918 10.08C120.419 9.18263 121.108 8.4835 121.985 7.98263C122.882 7.4609 123.884 7.20003 124.99 7.20003C126.117 7.20003 127.118 7.4922 127.995 8.07655C128.871 8.64003 129.56 9.3809 130.061 10.2992C130.562 11.1965 130.812 12.1357 130.812 13.1165V22.5392H127.369ZM117.07 22.5392V7.51307H120.513V22.5392H117.07ZM141.23 22.8522C139.748 22.8522 138.402 22.5079 137.192 21.8192C136.002 21.1305 135.063 20.1913 134.375 19.0018C133.686 17.8122 133.341 16.487 133.341 15.0261C133.341 13.5444 133.686 12.2192 134.375 11.0505C135.063 9.8609 136.002 8.92177 137.192 8.23307C138.402 7.54437 139.748 7.20003 141.23 7.20003C142.399 7.20003 143.484 7.42959 144.486 7.88872C145.508 8.32698 146.375 8.9635 147.084 9.79829L144.83 12.0835C144.392 11.5618 143.86 11.1757 143.234 10.9252C142.628 10.6539 141.961 10.5183 141.23 10.5183C140.375 10.5183 139.613 10.7165 138.945 11.1131C138.298 11.4887 137.787 12.0105 137.411 12.6783C137.056 13.3461 136.879 14.1287 136.879 15.0261C136.879 15.9026 137.056 16.6852 137.411 17.3739C137.787 18.0418 138.298 18.5739 138.945 18.9705C139.613 19.3461 140.375 19.5339 141.23 19.5339C141.961 19.5339 142.628 19.4087 143.234 19.1583C143.86 18.887 144.392 18.4905 144.83 17.9687L147.084 20.2539C146.375 21.0887 145.508 21.7357 144.486 22.1948C143.484 22.6331 142.399 22.8522 141.23 22.8522ZM156.242 22.8522C154.739 22.8522 153.383 22.5183 152.172 21.8505C150.983 21.1618 150.033 20.2226 149.324 19.0331C148.635 17.8435 148.291 16.5079 148.291 15.0261C148.291 13.5444 148.635 12.2192 149.324 11.0505C150.012 9.8609 150.941 8.92177 152.11 8.23307C153.299 7.54437 154.614 7.20003 156.054 7.20003C157.452 7.20003 158.684 7.5235 159.748 8.17046C160.833 8.81742 161.678 9.70437 162.284 10.8313C162.91 11.9583 163.223 13.2418 163.223 14.6818C163.223 14.9322 163.202 15.1931 163.16 15.4644C163.139 15.7148 163.098 15.9965 163.035 16.3096H150.701V13.4922H161.251L159.967 14.6192C159.925 13.7009 159.748 12.9287 159.435 12.3026C159.122 11.6765 158.673 11.1965 158.089 10.8626C157.525 10.5287 156.826 10.3618 155.991 10.3618C155.115 10.3618 154.353 10.5496 153.706 10.9252C153.059 11.3009 152.558 11.8331 152.204 12.5218C151.849 13.1896 151.671 13.9931 151.671 14.9322C151.671 15.8713 151.859 16.6957 152.235 17.4052C152.611 18.1148 153.143 18.6679 153.831 19.0644C154.52 19.44 155.313 19.6279 156.211 19.6279C156.983 19.6279 157.692 19.4922 158.339 19.2209C159.007 18.9496 159.571 18.5531 160.03 18.0313L162.221 20.2539C161.491 21.1096 160.604 21.7565 159.56 22.1948C158.517 22.6331 157.411 22.8522 156.242 22.8522Z" fill="#11B5A1"/>
</g>
<path d="M216.169 22.7218C222.292 22.7218 227.256 17.7579 227.256 11.6348C227.256 5.51168 222.292 0.547852 216.169 0.547852C210.046 0.547852 205.082 5.51168 205.082 11.6348C205.082 17.7579 210.046 22.7218 216.169 22.7218Z" fill="#11B5A1"/>
<path d="M213.529 6.01547L213.277 6.25639V9.25639C213.277 12.1462 213.288 12.2666 213.489 12.5274L213.69 12.7883H216.75C218.556 12.7883 219.89 12.7481 220 12.688C220.1 12.6378 220.231 12.4472 220.291 12.2766C220.432 11.8552 220.442 6.68773 220.301 6.30647C220.091 5.77469 220.081 5.77469 216.81 5.76465H213.769L213.529 6.01547ZM217.693 7.77139V8.37347H218.225C218.516 8.37347 218.806 8.42356 218.876 8.49387C218.997 8.61426 219.048 9.73808 218.937 10.0189C218.887 10.1393 218.726 10.1795 218.285 10.1795H217.693V10.7816V11.3835H216.84H215.988V10.7816V10.1895L215.364 10.1594L214.733 10.1293L214.703 9.3366C214.672 8.41365 214.693 8.37347 215.465 8.37347H215.988V7.77139V7.1693H216.84H217.693V7.77139Z" fill="white"/>
<path d="M222.193 12.9279C222.003 13.0083 221.331 13.3795 220.708 13.7709L219.574 14.4733L219.825 14.6337C220.115 14.8344 220.297 15.2057 220.297 15.627C220.297 16.6606 218.943 17.2928 216.705 17.3028C216.304 17.3028 215.651 17.373 215.259 17.4633C214.727 17.5837 214.528 17.5937 214.447 17.5034C214.136 17.1924 215.07 16.9516 216.935 16.8513C218.381 16.781 219.073 16.6004 219.544 16.1891C219.967 15.8178 220.006 15.4364 219.665 15.1153C219.394 14.8645 219.133 14.8444 217.899 15.005C216.564 15.1856 215.852 15.0251 214.226 14.1922C212.27 13.1889 211.265 13.0786 209.952 13.7407C209.369 14.0417 207.774 15.5167 207.694 15.8379C207.673 15.9583 207.774 16.8813 207.925 17.8947C208.135 19.2594 208.224 19.3803 208.344 19.4605C208.474 19.5408 208.658 19.8312 209.15 19.43C210.463 18.3262 210.825 18.3162 213.032 19.2594C214.558 19.9115 215.289 20.1123 216.123 20.1123C217.819 20.1123 219.394 19.3797 221.03 17.8044C222.324 16.5804 223.387 14.8344 223.487 13.791C223.528 13.3694 223.498 13.2691 223.277 13.0483C222.985 12.7574 222.735 12.7374 222.193 12.9279Z" fill="white"/>
</svg>
